<svg version="1.1" id=“shell” xmlns:ev="http://www.w3.org/2001/xml-events"
	 xmlns="http://www.w3.org/2000/svg" xmlns:xlink="http://www.w3.org/1999/xlink" x="0px" y="0px" viewBox="0 0 7103 3953"
	 enable-background="new 0 0 7103 3953" xml:space="preserve">
<path id="Group1936" fill="#FFFFFF" stroke="#000000" stroke-width="0.5" d="M3690.3-661.6c-31.1,5-109.2,14.7-143.8,17.6
	c-30.5,2.7-124.5,3.1-366.7,1.4c-132-0.8-154.6,0-220,7.1c-149.8,16.4-259.8,58.3-357.1,135.7c-20.1,16-55.6,52.1-77.4,78.4
	c-20.8,25.3-51,65.2-51,67.6c0,0.8,6,7.5,13.1,15.2c43.2,45.2,75.1,92.3,131.4,193.8c51.5,92.8,47.7,84.5,52.3,114.7
	c38,246.9,142.1,608,301.1,1045.8c17.2,47.3,45,124.1,61.8,170.8c16.8,46.7,43.6,121,59.8,165s40.5,111.4,54,149.6
	c60.4,170,111.2,300.1,190.5,488.3c111.8,265.2,208.5,425.6,320.4,531.4c44.8,42.5,68.1,59.3,128.9,93
	c25.5,14.3,32.2,19.1,56.9,41.3c46.5,42.1,91.3,70.6,144.8,92.5c93.4,38,195.1,47.5,313.7,29.1c112-17.4,228.3-75.7,294.2-147.3
	c14.1-15.2,27.8-27,58.9-50.4c29.1-22,47.1-37.1,63.1-53.5c123.9-126.2,244-392.2,301.7-668.4c22.6-107.9,34-195.5,48.4-372.5
	c15.2-186.5,32.8-279.3,78-415c29.5-88.4,56.9-155.4,143-349.4c104-234.3,138.4-325.4,185.3-489.3c35.9-125.7,53.3-211,57.3-281.6
	l1.2-23.2L5550-98c19.5-29.9,29.9-48.8,72.8-132.4c53.1-103.1,65.4-123,91.9-149.2c9.1-8.9,15.6-16.8,14.7-17.6
	c-18.7-16.6-77.2-60.8-104-78.6c-81.1-54.2-176.8-92.5-278.9-111.6c-61.2-11.4-106.7-14.9-196.9-14.9c-106.4,0.2-155.8,3.3-304,19.5
	c-103.6,11.4-190.5,20.1-235.5,23.5c-34.7,2.5-161.4,3.3-181.6,0.8l-11.8-1.4l-1.2,24.7c-0.8,13.5-2.7,35.5-4.2,48.8
	c-1.5,13.3-4.6,38.8-6.8,56.9c-8.5,70.5-8.7,158.7-0.8,301.7c4.2,78.2,5.6,170.4,2.9,201.1c-4.1,46.9-13.1,80.7-30.3,113.9
	c-22.8,44-43.6,61.6-133,112.1c-53.1,29.9-67.6,37.3-86.1,43c-42.5,13.7-98.4,5-140.5-21.4c-14.5-9.3-41.7-36.9-52.5-53.7
	c-35.7-54.8-62.7-129.3-86.3-237.4c-10.2-46.5-14.3-67.4-37.8-196.9c-25.3-138.8-39-197.5-78.6-338.4
	c-18.3-65.8-27.4-101.1-34.4-134.5C3721-669,3724-667.2,3690.3-661.6z M5777.7,501.3c-47.3,10.4-87.4,31.8-135.1,72.2l-15.6,13.1
	l-7.3,43.2c-25.7,150.7-27,161.6-46.5,360.6c-24.5,250-45.9,406.7-85.7,627.3c-23.4,129.1-29.3,168.1-37.1,245.1
	c-7.1,71.8-5.6,167.7,4.1,249c18.5,154.8,57.1,293.4,120.6,433.3c7.3,15.8,18,40.7,23.9,55.4l10.8,26.3l31.5,25.5
	c36.3,29.1,52.3,40,74.3,50.2c46.1,21.2,84.7,27.2,130.3,20.3c51.5-7.9,97.3-26.4,142.3-58.1c29.3-20.5,26.3-15.2,38.4-65.6
	c20.3-84.2,30.7-136.3,39.6-199.6c11.2-79.1,14.5-130.3,13.1-203.4c-2.1-109.8-15.1-172.8-67.7-329.3
	c-44.8-132.6-61.6-193.6-73.3-263.5c-15.2-90.5-16.8-217-4.2-333.9c6.6-60.4,14.9-115.4,40-266.4c17.8-107.1,25.3-157.9,30.5-206.5
	c5.4-50.4,8.5-105.4,7.5-133.8c-0.8-21.8-1.5-25.7-6.2-34.7c-17.6-34.7-50-74.1-74.5-91.1C5888.3,507.5,5820.6,491.8,5777.7,501.3z"
	/>
<path stroke="#FFFFFF" stroke-miterlimit="10" d="M5166.7,442.2c-14.5,43.8-45.4,62.5-77.8,53.9l13.5-41.3
	c9.8,3.3,26.6,1.9,35.7-24.7c5.8-17.8-1.7-29.5-9.7-32c-12.9-3.1-18.9,12.4-27.2,28.2c-8.1,15.6-15.6,28.8-24.3,37.6
	c-11,10.8-28.6,14.7-45.2,9.3c-28.4-9.3-42.7-41.3-29.3-81.8c12.9-39.6,42.1-57.9,73.7-50.4l-13.1,39.8c-8.3-2.3-22-5-29.7,18.3
	c-5.2,15.8-5.6,27.2,5.2,31.8c16.2,5.4,26.1-27.8,41.1-51.1c14.5-22.6,34.7-33,56.2-26.1C5175,366.4,5179.6,403,5166.7,442.2
	L5166.7,442.2z M4655.4,1113.9l-33.6-163.3l149.2-31.3l-60.2,183.2L4655.4,1113.9z M5014.9,891.4l-12.9,39.4l-158.3-52.1l13.1-39.4
	L5014.9,891.4z M4814.8,1235.7c24.5,8.1,51.7-6.2,59.8-30.7c8.3-24.9-5.2-52.7-29.7-60.8c-24.5-8.1-52.3,6.2-60.4,31.1
	C4776.4,1200,4790.3,1227.8,4814.8,1235.7L4814.8,1235.7z M4911.3,1218.3c-14.9,45-64.1,69.9-108.9,55
	c-45.4-14.9-69.1-63.9-54.2-108.9c5.8-17.4,15.6-32,29.7-42.5l-12.7-4.2l12.7-38.6l158.3,52.1l-12.7,38.6l-10.4-3.5
	C4917.3,1182.6,4917.1,1200.8,4911.3,1218.3L4911.3,1218.3z M4869.4,620.2l-394.3,82l-34.4-163.3l489.1-102.3L4869.4,620.2z
	 M4874.4,1054.7c24.5,8.1,51.7-6.2,60-31.3c8.1-24.5-5.4-51.9-29.9-60s-52.1,6-60.2,30.5C4836,1018.8,4849.9,1046.8,4874.4,1054.7
	L4874.4,1054.7z M4971.1,1036.7c-15.1,45.6-64.1,70.3-109.1,55.6c-45.4-14.9-69.1-63.7-54.2-109.2c5.6-17.2,15.4-31.5,29.3-41.7
	l-66.2-21.8l12.9-39.2l211.7,69.7l-12.9,39.2l-10.4-3.5C4976.7,1002.2,4976.7,1019.5,4971.1,1036.7L4971.1,1036.7z M4567.1,907.4
	l-33.4-163.7l316.9-66.6l-47.5,144.6l39,12.7l-12.9,39.6l-39-12.9L4567.1,907.4z M5013.8,631.4c24.5,8.1,51.7-6,59.8-30.7
	c8.1-24.5-5.6-51.5-30.1-59.6c-24.5-8.1-51.9,5.2-60,29.9C4975.2,595.5,4989.3,623.3,5013.8,631.4L5013.8,631.4z M5110.1,614.2
	c-14.9,45-64.1,69.9-108.9,55.2c-45.4-14.9-69.1-63.9-54.2-108.9c5.6-17,15.4-31.7,29.3-41.5l-12.7-4.2l12.9-39.2l158.3,52.1
	l-12.9,39.2l-10.4-3.5C5115.9,579.5,5115.9,596.6,5110.1,614.2L5110.1,614.2z M4954.3,811.8c24.5,8.1,51.7-6,59.6-30.1
	c8.3-24.9-5.2-52.5-29.7-60.6s-52.1,6-60.4,30.9C4915.7,776.3,4929.8,803.9,4954.3,811.8L4954.3,811.8z M4850.7,677.1l12.7-38.6
	l211.7,69.7l-12.7,38.6l-10.4-3.5c4.4,16,4.2,33.8-1.5,51.5c-14.9,45-64.1,69.9-108.9,55c-45.4-14.9-69.1-63.7-54.4-108.7
	c5.8-17.8,15.6-31.8,29.5-42.3L4850.7,677.1L4850.7,677.1z"/>
</svg>
